#define bullet_width 8
#define bullet_height 8
static unsigned char bullet_bits[] = {
   0x00, 0x30, 0x60, 0xc0, 0xc0, 0x60, 0x30, 0x00 };
